<svg width="80" height="32" viewBox="0 0 80 32" fill="none" xmlns="http://www.w3.org/2000/svg">
<g>
<path fill-rule="evenodd" clip-rule="evenodd" d="M18.219 8.45752C18.219 9.0098 18.6667 9.45752 19.219 9.45752L22.5425 9.45752V12.781C22.5425 13.3333 22.9902 13.781 23.5425 13.781C24.0948 13.781 24.5425 13.3333 24.5425 12.781V8.45752C24.5425 7.90524 24.0948 7.45752 23.5425 7.45752L19.219 7.45752C18.6667 7.45752 18.219 7.90523 18.219 8.45752Z" fill="white"/>
<path fill-rule="evenodd" clip-rule="evenodd" d="M23.5425 18.219C22.9902 18.219 22.5425 18.6667 22.5425 19.219L22.5425 22.5425L19.219 22.5425C18.6667 22.5425 18.219 22.9902 18.219 23.5425C18.219 24.0948 18.6667 24.5425 19.219 24.5425H23.5425C24.0948 24.5425 24.5425 24.0948 24.5425 23.5425L24.5425 19.219C24.5425 18.6667 24.0948 18.219 23.5425 18.219Z" fill="white"/>
<path fill-rule="evenodd" clip-rule="evenodd" d="M8.45756 18.219C9.00984 18.219 9.45756 18.6667 9.45756 19.219L9.45756 22.5425L12.7811 22.5425C13.3334 22.5425 13.7811 22.9902 13.7811 23.5425C13.7811 24.0948 13.3334 24.5425 12.7811 24.5425L8.45756 24.5425C7.90527 24.5425 7.45756 24.0948 7.45756 23.5425L7.45756 19.219C7.45756 18.6667 7.90527 18.219 8.45756 18.219Z" fill="white"/>
<path fill-rule="evenodd" clip-rule="evenodd" d="M13.781 8.45752C13.781 9.0098 13.3333 9.45752 12.781 9.45752L9.45752 9.45752L9.45752 12.781C9.45752 13.3333 9.0098 13.781 8.45752 13.781C7.90523 13.781 7.45752 13.3333 7.45752 12.781L7.45752 8.45752C7.45752 7.90523 7.90524 7.45752 8.45752 7.45752L12.781 7.45752C13.3333 7.45752 13.781 7.90524 13.781 8.45752Z" fill="white"/>
</g>
<g>
<path fill-rule="evenodd" clip-rule="evenodd" d="M64.185 6.09973C65.5883 4.93027 67.7297 5.77529 67.9563 7.58794C68.6546 13.1743 68.6546 18.8258 67.9563 24.4121C67.7297 26.2247 65.5883 27.0698 64.185 25.9003L58.3973 21.0773C58.3374 21.0274 58.2619 21 58.1839 21H53.3333C52.0447 21 51 19.9553 51 18.6667V13.3334C51 12.0447 52.0447 11 53.3333 11H58.1839C58.2619 11 58.3374 10.9727 58.3973 10.9228L64.185 6.09973ZM65.9717 7.83601C65.9413 7.59261 65.6538 7.47915 65.4653 7.63618L59.6777 12.4592C59.2584 12.8086 58.7298 13 58.1839 13H53.3333C53.1492 13 53 13.1493 53 13.3334V18.6667C53 18.8508 53.1492 19 53.3333 19H58.1839C58.7298 19 59.2584 19.1914 59.6777 19.5408L65.4653 24.3639C65.6538 24.5209 65.9413 24.4074 65.9717 24.164C66.6494 18.7424 66.6494 13.2576 65.9717 7.83601Z" fill="white"/>
<path d="M70.9359 12.9359C71.3264 12.5454 71.9596 12.5454 72.3501 12.9359L74 14.5858L75.6499 12.9359C76.0404 12.5454 76.6736 12.5454 77.0641 12.9359C77.4547 13.3264 77.4547 13.9596 77.0641 14.3501L75.4142 16L77.0641 17.6499C77.4547 18.0405 77.4547 18.6736 77.0641 19.0641C76.6736 19.4547 76.0404 19.4547 75.6499 19.0641L74 17.4142L72.3501 19.0641C71.9596 19.4547 71.3264 19.4547 70.9359 19.0641C70.5454 18.6736 70.5454 18.0405 70.9359 17.6499L72.5858 16L70.9359 14.3501C70.5454 13.9596 70.5454 13.3264 70.9359 12.9359Z" fill="white"/>
</g>
<style>
    g {
    cursor: pointer;
    }
</style>
</svg>
