<svg width="24" height="25" viewBox="0 0 24 25" fill="none" xmlns="http://www.w3.org/2000/svg">
<g id="Icon">
<path d="M9.3335 14.6667C9.88578 14.6667 10.3335 15.1144 10.3335 15.6667V18.3333C10.3335 18.8856 9.88578 19.3333 9.3335 19.3333C8.78121 19.3333 8.3335 18.8856 8.3335 18.3333V15.6667C8.3335 15.1144 8.78121 14.6667 9.3335 14.6667Z" fill="#1E1E22"/>
<path d="M15.6668 15.6667C15.6668 15.1144 15.2191 14.6667 14.6668 14.6667C14.1145 14.6667 13.6668 15.1144 13.6668 15.6667V18.3333C13.6668 18.8856 14.1145 19.3333 14.6668 19.3333C15.2191 19.3333 15.6668 18.8856 15.6668 18.3333V15.6667Z" fill="#1E1E22"/>
<path fill-rule="evenodd" clip-rule="evenodd" d="M8.86619 1.49998C9.14233 1.02169 8.97845 0.410101 8.50016 0.133958C8.02187 -0.142184 7.41028 0.0216912 7.13413 0.499984L4.46747 5.11879C4.42752 5.18798 4.39678 5.25996 4.37487 5.33332H4.00016C1.97512 5.33332 0.333496 6.97494 0.333496 8.99999C0.333496 10.1455 0.858784 11.1683 1.68162 11.8407L2.57087 17.9536L3.16653 20.7445C3.52342 22.4166 4.88847 23.6868 6.58198 23.9224C10.1768 24.4226 13.8235 24.4226 17.4183 23.9224C19.1119 23.6868 20.4769 22.4166 20.8338 20.7445L21.4295 17.9536L22.3187 11.8407C23.1415 11.1683 23.6668 10.1455 23.6668 8.99999C23.6668 6.97494 22.0252 5.33332 20.0002 5.33332H19.6255C19.6035 5.25996 19.5728 5.18798 19.5329 5.11879L16.8662 0.499984C16.59 0.0216912 15.9785 -0.142184 15.5002 0.133958C15.0219 0.410101 14.858 1.02169 15.1341 1.49998L17.3473 5.33332H6.65301L8.86619 1.49998ZM20.1781 12.6624C20.1192 12.6652 20.0598 12.6667 20.0002 12.6667H4.00016C3.9405 12.6667 3.88117 12.6652 3.82221 12.6624L4.54056 17.6006L5.12248 20.327C5.30379 21.1765 5.99727 21.8218 6.8576 21.9415C10.2695 22.4162 13.7308 22.4162 17.1427 21.9415C18.0031 21.8218 18.6965 21.1765 18.8778 20.327L19.4598 17.6006L20.1781 12.6624ZM2.3335 8.99999C2.3335 8.07951 3.07969 7.33332 4.00016 7.33332H20.0002C20.9206 7.33332 21.6668 8.07951 21.6668 8.99999C21.6668 9.92046 20.9206 10.6667 20.0002 10.6667H4.00016C3.07969 10.6667 2.3335 9.92046 2.3335 8.99999Z" fill="#1E1E22"/>
</g>
<style>
    svg {
    cursor: pointer;
    }
</style>
</svg>
