<svg width="24" height="20" viewBox="0 0 24 20" fill="none" xmlns="http://www.w3.org/2000/svg">
<path id="Icon" fill-rule="evenodd" clip-rule="evenodd" d="M0.333496 6.37306C0.333496 2.7724 3.49235 0 7.20016 0C9.11146 0 10.7933 0.896185 12.0002 2.05578C13.207 0.896185 14.8889 0 16.8002 0C20.508 0 23.6668 2.7724 23.6668 6.37306C23.6668 8.83956 22.615 11.0086 21.1577 12.8421C19.703 14.6723 17.8001 16.2257 15.9781 17.488C15.2822 17.9701 14.5782 18.4148 13.9339 18.743C13.3288 19.0511 12.6332 19.3333 12.0002 19.3333C11.3672 19.3333 10.6715 19.0511 10.0665 18.743C9.42214 18.4148 8.71811 17.9701 8.0222 17.488C6.20023 16.2257 4.29733 14.6723 2.84259 12.8421C1.38534 11.0086 0.333496 8.83956 0.333496 6.37306ZM7.20016 2C4.42783 2 2.3335 4.0388 2.3335 6.37306C2.3335 8.24439 3.12788 9.98667 4.40828 11.5976C5.69121 13.2117 7.41739 14.6359 9.16115 15.8439C9.82099 16.3011 10.4425 16.69 10.9741 16.9608C11.545 17.2515 11.8757 17.3333 12.0002 17.3333C12.1246 17.3333 12.4553 17.2515 13.0262 16.9608C13.5578 16.69 14.1793 16.3011 14.8392 15.8439C16.5829 14.6359 18.3091 13.2117 19.592 11.5976C20.8724 9.98666 21.6668 8.24439 21.6668 6.37306C21.6668 4.0388 19.5725 2 16.8002 2C15.208 2 13.7212 2.95123 12.7929 4.15856C12.6036 4.40475 12.3107 4.54902 12.0002 4.54902C11.6896 4.54902 11.3967 4.40475 11.2074 4.15856C10.2791 2.95123 8.79236 2 7.20016 2Z" fill="#1E1E22"/>
<style>
    svg {
    cursor: pointer;
    }
</style>
</svg>
