<svg width="4" height="20" viewBox="0 0 4 20" fill="none" xmlns="http://www.w3.org/2000/svg">
<path id="Icon" d="M2 0.750031C2.69036 0.750031 3.25 1.30967 3.25 2.00003C3.25 2.69039 2.69036 3.25003 2 3.25003C1.30964 3.25003 0.750001 2.69039 0.750001 2.00003C0.750001 1.30967 1.30964 0.75003 2 0.750031ZM2 8.75003C2.69036 8.75003 3.25 9.30967 3.25 10C3.25 10.6904 2.69036 11.25 2 11.25C1.30964 11.25 0.75 10.6904 0.75 10C0.75 9.30968 1.30964 8.75003 2 8.75003ZM2 16.75C2.69036 16.75 3.25 17.3097 3.25 18C3.25 18.6904 2.69036 19.25 2 19.25C1.30964 19.25 0.75 18.6904 0.75 18C0.75 17.3097 1.30964 16.75 2 16.75Z" fill="#1E1E22" stroke="#1E1E22" stroke-width="1.5"/>
<style>
    svg {
    cursor: pointer;
    }
</style>
</svg>
