<svg width="24" height="24" viewBox="0 0 24 24" fill="none" xmlns="http://www.w3.org/2000/svg">
<path id="Icon" fill-rule="evenodd" clip-rule="evenodd" d="M15.18 16.5943C11.6463 19.4245 6.47376 19.2018 3.19805 15.9261C-0.316668 12.4113 -0.316668 6.71286 3.19805 3.19814C6.71277 -0.316577 12.4113 -0.316576 15.926 3.19814C19.2017 6.47385 19.4244 11.6464 16.5942 15.1801L23.4684 22.0543C23.8589 22.4448 23.8589 23.078 23.4684 23.4685C23.0779 23.859 22.4447 23.859 22.0542 23.4685L15.18 16.5943ZM4.61226 14.5119C1.87859 11.7782 1.87859 7.34603 4.61226 4.61236C7.34593 1.87869 11.7781 1.87869 14.5118 4.61236C17.2434 7.34402 17.2454 11.7717 14.5178 14.5058C14.5158 14.5078 14.5137 14.5098 14.5117 14.5118C14.5097 14.5138 14.5077 14.5158 14.5057 14.5179C11.7716 17.2455 7.34393 17.2435 4.61226 14.5119Z" fill="#1E1E22"/>
<style>
    svg {
    cursor: pointer;
    }
</style>
</svg>
