<svg width="82" height="40" viewBox="0 0 82 40" fill="none" xmlns="http://www.w3.org/2000/svg">
<rect width="82" height="40" rx="20" fill="black" fill-opacity="0.06"/>
<path d="M19.9998 8.6665C13.7406 8.6665 8.6665 13.7406 8.6665 19.9998C8.6665 26.2591 13.7406 31.3332 19.9998 31.3332C25.89 31.3332 30.73 26.8403 31.281 21.0942C31.3066 20.8267 31.1692 20.57 30.9325 20.443C30.6957 20.3161 30.4059 20.3436 30.1973 20.5129C29.0511 21.443 27.5914 21.9998 25.9998 21.9998C22.3179 21.9998 19.3332 19.0151 19.3332 15.3332C19.3332 13.1464 20.3854 11.2055 22.014 9.98873C22.2293 9.82785 22.3269 9.55339 22.2616 9.29265C22.1963 9.03192 21.9808 8.83591 21.715 8.79555C21.1553 8.71053 20.5825 8.6665 19.9998 8.6665Z" fill="#1E1E22"/>
<path d="M44 20C44 11.1634 51.1634 4 60 4V4C68.8366 4 76 11.1634 76 20V20C76 28.8366 68.8366 36 60 36V36C51.1634 36 44 28.8366 44 20V20Z" fill="white"/>
<path d="M60 7C60.5009 7 60.907 7.40607 60.907 7.90698V9.11628C60.907 9.61719 60.5009 10.0233 60 10.0233C59.4991 10.0233 59.093 9.61719 59.093 9.11628V7.90698C59.093 7.40607 59.4991 7 60 7Z" fill="#1E1E22"/>
<path fill-rule="evenodd" clip-rule="evenodd" d="M53.0465 20C53.0465 16.1597 56.1597 13.0465 60 13.0465C63.8403 13.0465 66.9535 16.1597 66.9535 20C66.9535 23.8403 63.8403 26.9535 60 26.9535C56.1597 26.9535 53.0465 23.8403 53.0465 20ZM60 14.8605C57.1615 14.8605 54.8605 17.1615 54.8605 20C54.8605 22.8385 57.1615 25.1395 60 25.1395C62.8385 25.1395 65.1395 22.8385 65.1395 20C65.1395 17.1615 62.8385 14.8605 60 14.8605Z" fill="#1E1E22"/>
<path d="M52.0903 10.8076C51.7361 10.4534 51.1618 10.4534 50.8076 10.8076C50.4534 11.1618 50.4534 11.7361 50.8076 12.0903L51.6627 12.9454C52.0169 13.2996 52.5912 13.2996 52.9454 12.9454C53.2996 12.5912 53.2996 12.0169 52.9454 11.6627L52.0903 10.8076Z" fill="#1E1E22"/>
<path d="M73 20C73 20.5009 72.5939 20.907 72.093 20.907H70.8837C70.3828 20.907 69.9767 20.5009 69.9767 20C69.9767 19.4991 70.3828 19.093 70.8837 19.093H72.093C72.5939 19.093 73 19.4991 73 20Z" fill="#1E1E22"/>
<path d="M69.1924 12.0903C69.5466 11.7361 69.5466 11.1618 69.1924 10.8076C68.8382 10.4534 68.2639 10.4534 67.9097 10.8076L67.0546 11.6627C66.7004 12.0169 66.7004 12.5912 67.0546 12.9454C67.4088 13.2996 67.9831 13.2996 68.3373 12.9454L69.1924 12.0903Z" fill="#1E1E22"/>
<path d="M60 29.9767C60.5009 29.9767 60.907 30.3828 60.907 30.8837V32.093C60.907 32.5939 60.5009 33 60 33C59.4991 33 59.093 32.5939 59.093 32.093V30.8837C59.093 30.3828 59.4991 29.9767 60 29.9767Z" fill="#1E1E22"/>
<path d="M68.3373 27.0546C67.9831 26.7004 67.4089 26.7004 67.0547 27.0546C66.7005 27.4088 66.7005 27.9831 67.0547 28.3373L67.9098 29.1924C68.264 29.5466 68.8382 29.5466 69.1924 29.1924C69.5466 28.8382 69.5466 28.2639 69.1924 27.9097L68.3373 27.0546Z" fill="#1E1E22"/>
<path d="M50.0233 20C50.0233 20.5009 49.6172 20.907 49.1163 20.907H47.907C47.4061 20.907 47 20.5009 47 20C47 19.4991 47.4061 19.093 47.907 19.093H49.1163C49.6172 19.093 50.0233 19.4991 50.0233 20Z" fill="#1E1E22"/>
<path d="M52.9453 28.3373C53.2995 27.9831 53.2995 27.4088 52.9453 27.0546C52.5911 26.7004 52.0169 26.7004 51.6627 27.0546L50.8075 27.9097C50.4534 28.2639 50.4534 28.8382 50.8075 29.1924C51.1617 29.5466 51.736 29.5466 52.0902 29.1924L52.9453 28.3373Z" fill="#1E1E22"/>
<style>
    svg {
    cursor: pointer;
    }
</style>
</svg>
