<svg xmlns="http://www.w3.org/2000/svg" xmlns:xlink="http://www.w3.org/1999/xlink">
  <symbol id="dark" viewBox="0 0 24 24">
    <path d="M11.9998 0.666656C5.74061 0.666656 0.666504 5.74076 0.666504 12C0.666504 18.2592 5.74061 23.3333 11.9998 23.3333C17.89 23.3333 22.73 18.8404 23.281 13.0943C23.3066 12.8269 23.1692 12.5702 22.9325 12.4432C22.6957 12.3162 22.4059 12.3437 22.1973 12.513C21.0511 13.4431 19.5914 14 17.9998 14C14.3179 14 11.3332 11.0152 11.3332 7.33332C11.3332 5.14652 12.3854 3.20564 14.014 1.98888C14.2293 1.828 14.3269 1.55354 14.2616 1.29281C14.1963 1.03207 13.9808 0.836066 13.715 0.795702C13.1553 0.710686 12.5825 0.666656 11.9998 0.666656Z" fill="#1E1E22"/>
  </symbol>
  <symbol id="light" viewBox="0 0 32 32">
    <path d="M0 16C0 7.16344 7.16344 0 16 0C24.8366 0 32 7.16344 32 16C32 24.8366 24.8366 32 16 32C7.16344 32 0 24.8366 0 16Z" fill="white"/>
    <path d="M16 3C16.5009 3 16.907 3.40607 16.907 3.90698V5.11628C16.907 5.61719 16.5009 6.02326 16 6.02326C15.4991 6.02326 15.093 5.61719 15.093 5.11628V3.90698C15.093 3.40607 15.4991 3 16 3Z" fill="#1E1E22"/>
    <path fill-rule="evenodd" clip-rule="evenodd" d="M9.04651 16C9.04651 12.1597 12.1597 9.04651 16 9.04651C19.8403 9.04651 22.9535 12.1597 22.9535 16C22.9535 19.8403 19.8403 22.9535 16 22.9535C12.1597 22.9535 9.04651 19.8403 9.04651 16ZM16 10.8605C13.1615 10.8605 10.8605 13.1615 10.8605 16C10.8605 18.8385 13.1615 21.1395 16 21.1395C18.8385 21.1395 21.1395 18.8385 21.1395 16C21.1395 13.1615 18.8385 10.8605 16 10.8605Z" fill="#1E1E22"/>
    <path d="M8.09029 6.80764C7.73609 6.45344 7.16183 6.45344 6.80763 6.80764C6.45343 7.16184 6.45343 7.7361 6.80763 8.0903L7.66273 8.9454C8.01693 9.2996 8.5912 9.2996 8.94539 8.9454C9.29959 8.59121 9.29959 8.01694 8.94539 7.66275L8.09029 6.80764Z" fill="#1E1E22"/>
    <path d="M29 16C29 16.5009 28.5939 16.907 28.093 16.907H26.8837C26.3828 16.907 25.9767 16.5009 25.9767 16C25.9767 15.4991 26.3828 15.093 26.8837 15.093H28.093C28.5939 15.093 29 15.4991 29 16Z" fill="#1E1E22"/>
    <path d="M25.1924 8.09029C25.5466 7.73609 25.5466 7.16183 25.1924 6.80763C24.8382 6.45343 24.2639 6.45343 23.9097 6.80763L23.0546 7.66273C22.7004 8.01693 22.7004 8.5912 23.0546 8.94539C23.4088 9.29959 23.9831 9.29959 24.3373 8.94539L25.1924 8.09029Z" fill="#1E1E22"/>
    <path d="M16 25.9767C16.5009 25.9767 16.907 26.3828 16.907 26.8837V28.093C16.907 28.5939 16.5009 29 16 29C15.4991 29 15.093 28.5939 15.093 28.093V26.8837C15.093 26.3828 15.4991 25.9767 16 25.9767Z" fill="#1E1E22"/>
    <path d="M24.3373 23.0546C23.9831 22.7004 23.4089 22.7004 23.0547 23.0546C22.7005 23.4088 22.7005 23.9831 23.0547 24.3373L23.9098 25.1924C24.264 25.5466 24.8382 25.5466 25.1924 25.1924C25.5466 24.8382 25.5466 24.2639 25.1924 23.9097L24.3373 23.0546Z" fill="#1E1E22"/>
    <path d="M6.02326 16C6.02326 16.5009 5.61719 16.907 5.11628 16.907H3.90698C3.40607 16.907 3 16.5009 3 16C3 15.4991 3.40607 15.093 3.90698 15.093H5.11628C5.61719 15.093 6.02326 15.4991 6.02326 16Z" fill="#1E1E22"/>
    <path d="M8.94531 24.3373C9.29951 23.9831 9.29951 23.4088 8.94531 23.0546C8.59112 22.7004 8.01685 22.7004 7.66265 23.0546L6.80755 23.9097C6.45335 24.2639 6.45335 24.8382 6.80755 25.1924C7.16174 25.5466 7.73601 25.5466 8.09021 25.1924L8.94531 24.3373Z" fill="#1E1E22"/>
  </symbol>
  <view id="dark-view" viewBox="0 0 24 24" />
  <view id="light-view" viewBox="25 0 32 32" />
  <use xlink:href="#dark" width="24" height="24" x="0" y="0"/>
  <use xlink:href="#light" width="32" height="32" x="25" y="0"/>
</svg>
