<svg xmlns="http://www.w3.org/2000/svg" xmlns:xlink="http://www.w3.org/1999/xlink">
  <symbol id="bw" viewBox="0 0 8 14" >
    <path opacity="0.6" fill-rule="evenodd" clip-rule="evenodd" d="M7.70694 0.959519C8.09747 1.35004 8.09747 1.98321 7.70694 2.37373L3.08072 6.99996L7.70694 11.6262C8.09747 12.0167 8.09747 12.6499 7.70694 13.0404C7.31642 13.4309 6.68325 13.4309 6.29273 13.0404L0.959397 7.70707C0.568873 7.31654 0.568873 6.68338 0.959397 6.29285L6.29273 0.959519C6.68325 0.568995 7.31642 0.568995 7.70694 0.959519Z" fill="#1E1E22"/>
  </symbol>
  <symbol id="fw" viewBox="0 0 8 14" >
    <path fill-rule="evenodd" clip-rule="evenodd" d="M0.292893 0.959519C0.683418 0.568995 1.31658 0.568995 1.70711 0.959519L7.04044 6.29285C7.43096 6.68338 7.43096 7.31654 7.04044 7.70707L1.70711 13.0404C1.31658 13.4309 0.683418 13.4309 0.292893 13.0404C-0.0976311 12.6499 -0.0976311 12.0167 0.292893 11.6262L4.91912 6.99996L0.292893 2.37373C-0.0976311 1.98321 -0.0976311 1.35004 0.292893 0.959519Z" fill="#1E1E22"/>
  </symbol>
  <view id="bw-view" viewBox="0 0 8 14" />
  <view id="fw-view" viewBox="8 0 8 14" />
  <use xlink:href="#bw" width="8" height="14" x="0" y="0"/>
  <use xlink:href="#fw" width="8" height="14" x="8" y="0"/>
</svg>
