<svg width="32" height="32" viewBox="0 0 32 32"  xmlns="http://www.w3.org/2000/svg">
<path fill-rule="evenodd" clip-rule="evenodd" d="M4.3335 13.3731C4.3335 9.7724 7.49235 7 11.2002 7C13.1115 7 14.7933 7.89618 16.0002 9.05578C17.207 7.89618 18.8889 7 20.8002 7C24.508 7 27.6668 9.7724 27.6668 13.3731C27.6668 15.8396 26.615 18.0086 25.1577 19.8421C23.703 21.6723 21.8001 23.2257 19.9781 24.488C19.2822 24.9701 18.5782 25.4148 17.9339 25.743C17.3288 26.0511 16.6332 26.3333 16.0002 26.3333C15.3672 26.3333 14.6715 26.0511 14.0665 25.743C13.4221 25.4148 12.7181 24.9701 12.0222 24.488C10.2002 23.2257 8.29733 21.6723 6.84259 19.8421C5.38534 18.0086 4.3335 15.8396 4.3335 13.3731ZM11.2002 9C8.42783 9 6.3335 11.0388 6.3335 13.3731C6.3335 15.2444 7.12788 16.9867 8.40828 18.5976C9.69121 20.2117 11.4174 21.6359 13.1612 22.8439C13.821 23.3011 14.4425 23.69 14.9741 23.9608C15.545 24.2515 15.8757 24.3333 16.0002 24.3333C16.1246 24.3333 16.4553 24.2515 17.0262 23.9608C17.5578 23.69 18.1793 23.3011 18.8392 22.8439C20.5829 21.6359 22.3091 20.2117 23.592 18.5976C24.8724 16.9867 25.6668 15.2444 25.6668 13.3731C25.6668 11.0388 23.5725 9 20.8002 9C19.208 9 17.7212 9.95123 16.7929 11.1586C16.6036 11.4047 16.3107 11.549 16.0002 11.549C15.6896 11.549 15.3967 11.4047 15.2074 11.1586C14.2791 9.95123 12.7924 9 11.2002 9Z" fill="white"/>
</svg>
