<svg xmlns="http://www.w3.org/2000/svg" xmlns:xlink="http://www.w3.org/1999/xlink">
  <symbol id="in" viewBox="0 0 16 16" fill="none">
    <path d="M15.996 16L16 15.9993V10.1314C16 7.26073 15.382 5.04942 12.026 5.04942C10.4127 5.04942 9.33 5.93474 8.888 6.77407H8.84133V5.31741H5.65933V15.9993H8.97267V10.71C8.97267 9.31738 9.23667 7.97073 10.9613 7.97073C12.6607 7.97073 12.686 9.56005 12.686 10.7994V16H15.996Z" fill="#3C7DFF"/>
    <path d="M0.263996 5.31784H3.58133V15.9998H0.263996V5.31784Z" fill="#3C7DFF"/>
    <path d="M1.92133 0C0.860666 0 0 0.86066 0 1.92132C0 2.98198 0.860666 3.86064 1.92133 3.86064C2.982 3.86064 3.84266 2.98198 3.84266 1.92132C3.842 0.86066 2.98133 0 1.92133 0Z" fill="#3C7DFF"/>
  </symbol>
  <symbol id="fb" viewBox="0 0 10 16" fill="none" >
    <path d="M9.16109 0.00332907L7.0024 0C4.57718 0 3.0099 1.54552 3.0099 3.93762V5.75313H0.839433C0.651879 5.75313 0.5 5.89927 0.5 6.07954V8.71001C0.5 8.89028 0.652052 9.03625 0.839433 9.03625H3.0099V15.6738C3.0099 15.854 3.16178 16 3.34933 16H6.18118C6.36873 16 6.52061 15.8539 6.52061 15.6738V9.03625H9.05839C9.24595 9.03625 9.39782 8.89028 9.39782 8.71001L9.39886 6.07954C9.39886 5.99299 9.36302 5.91009 9.29946 5.84884C9.2359 5.78758 9.14931 5.75313 9.05926 5.75313H6.52061V4.2141C6.52061 3.47438 6.70401 3.09886 7.70655 3.09886L9.16074 3.09836C9.34812 3.09836 9.5 2.95222 9.5 2.77211V0.329578C9.5 0.149642 9.34829 0.00366197 9.16109 0.00332907Z" fill="#3C7DFF"/>
  </symbol>
  <symbol id="insta" viewBox="0 0 16 16" fill="none" >
    <path d="M8 4.86957C6.2739 4.86957 4.86957 6.2739 4.86957 8C4.86957 9.7261 6.2739 11.1304 8 11.1304C9.7261 11.1304 11.1304 9.7261 11.1304 8C11.1304 6.2739 9.72621 4.86957 8 4.86957Z" fill="#3C7DFF"/>
    <path d="M14.3878 1.61218C13.3481 0.57251 11.9712 0 10.5105 0H5.4895C4.02881 0 2.65173 0.57251 1.61218 1.61218C0.57251 2.65173 0 4.02881 0 5.4895V10.5104C0 11.9712 0.57251 13.3483 1.61218 14.3878C2.65173 15.4275 4.02881 16 5.4895 16H10.5105C11.9712 16 13.3483 15.4275 14.3878 14.3878C15.4274 13.3483 16 11.9712 16 10.5104V5.4895C16 4.02881 15.4274 2.65173 14.3878 1.61218ZM8 12.2344C5.66516 12.2344 3.76562 10.3348 3.76562 8C3.76562 5.66516 5.66516 3.76562 8 3.76562C10.3348 3.76562 12.2344 5.66516 12.2344 8C12.2344 10.3348 10.3348 12.2344 8 12.2344ZM12.6909 3.97205C12.6038 4.0592 12.4828 4.10925 12.3595 4.10925C12.2361 4.10925 12.1154 4.0592 12.0282 3.97205C11.9407 3.88477 11.8907 3.76392 11.8907 3.6405C11.8907 3.51709 11.9407 3.39612 12.0282 3.30896C12.1154 3.22168 12.236 3.17175 12.3595 3.17175C12.4828 3.17175 12.6038 3.22168 12.6909 3.30896C12.7782 3.39612 12.8282 3.51709 12.8282 3.6405C12.8282 3.76379 12.7782 3.88477 12.6909 3.97205Z" fill="#3C7DFF"/>
  </symbol>

  <view id="in-view" viewBox="0 0 16 16" />
  <view id="fb-view" viewBox="16 0 10 16" />
  <view id="insta-view" viewBox="26 0 16 16" />
  <use xlink:href="#in" width="16" height="16" x="0" y="0"/>
  <use xlink:href="#fb" width="10" height="16" x="16" y="0"/>
  <use xlink:href="#insta" width="16" height="16" x="26" y="0"/>
</svg>
