<svg version="1.1" xmlns="http://www.w3.org/2000/svg" xmlns:xlink="http://www.w3.org/1999/xlink">
  <symbol id="size" viewBox="0 0 18 18">
    <path fill-rule="evenodd" clip-rule="evenodd" d="M11.219 1.45752C11.219 2.0098 11.6667 2.45752 12.219 2.45752L15.5425 2.45752V5.78104C15.5425 6.33332 15.9902 6.78104 16.5425 6.78104C17.0948 6.78104 17.5425 6.33332 17.5425 5.78104V1.45752C17.5425 0.905236 17.0948 0.457521 16.5425 0.45752L12.219 0.45752C11.6667 0.457519 11.219 0.905235 11.219 1.45752Z" fill="white"/>
    <path fill-rule="evenodd" clip-rule="evenodd" d="M16.5425 11.219C15.9902 11.219 15.5425 11.6667 15.5425 12.219L15.5425 15.5425L12.219 15.5425C11.6667 15.5425 11.219 15.9902 11.219 16.5425C11.219 17.0948 11.6667 17.5425 12.219 17.5425H16.5425C17.0948 17.5425 17.5425 17.0948 17.5425 16.5425L17.5425 12.219C17.5425 11.6667 17.0948 11.219 16.5425 11.219Z" fill="white"/>
    <path fill-rule="evenodd" clip-rule="evenodd" d="M1.45756 11.219C2.00984 11.219 2.45756 11.6667 2.45756 12.219L2.45756 15.5425L5.78108 15.5425C6.33336 15.5425 6.78108 15.9902 6.78108 16.5425C6.78108 17.0948 6.33336 17.5425 5.78108 17.5425L1.45756 17.5425C0.905271 17.5425 0.457556 17.0948 0.457555 16.5425L0.457555 12.219C0.457555 11.6667 0.905271 11.219 1.45756 11.219Z" fill="white"/>
    <path fill-rule="evenodd" clip-rule="evenodd" d="M6.78104 1.45752C6.78104 2.0098 6.33333 2.45752 5.78104 2.45752L2.45752 2.45752L2.45752 5.78104C2.45752 6.33333 2.0098 6.78104 1.45752 6.78104C0.905235 6.78104 0.45752 6.33332 0.45752 5.78104L0.457521 1.45752C0.457521 0.905235 0.905236 0.45752 1.45752 0.45752L5.78104 0.45752C6.33333 0.45752 6.78104 0.905235 6.78104 1.45752Z" fill="white"/>
  </symbol>
  <symbol id="mute" viewBox="0 0 27 22">
    <path fill-rule="evenodd" clip-rule="evenodd" d="M13.185 1.09973C14.5883 -0.0697305 16.7297 0.775288 16.9563 2.58794C17.6546 8.17425 17.6546 13.8258 16.9563 19.4121C16.7297 21.2247 14.5883 22.0698 13.185 20.9003L7.39733 16.0773C7.33742 16.0274 7.26191 16 7.18393 16H2.33333C1.04467 16 0 14.9553 0 13.6667V8.33335C0 7.04469 1.04467 6.00002 2.33333 6.00002H7.18393C7.26191 6.00002 7.33742 5.97268 7.39733 5.92276L13.185 1.09973ZM14.9717 2.83601C14.9413 2.59261 14.6538 2.47915 14.4653 2.63618L8.6777 7.4592C8.25836 7.80865 7.72979 8.00002 7.18393 8.00002H2.33333C2.14924 8.00002 2 8.14926 2 8.33335V13.6667C2 13.8508 2.14924 14 2.33333 14H7.18393C7.72979 14 8.25836 14.1914 8.6777 14.5408L14.4653 19.3639C14.6538 19.5209 14.9413 19.4074 14.9717 19.164C15.6494 13.7424 15.6494 8.25758 14.9717 2.83601Z" fill="white"/>
    <path d="M19.9359 7.93589C20.3264 7.54536 20.9596 7.54536 21.3501 7.93589L23 9.5858L24.6499 7.93588C25.0404 7.54536 25.6736 7.54536 26.0641 7.93588C26.4547 8.32641 26.4547 8.95957 26.0641 9.3501L24.4142 11L26.0641 12.6499C26.4547 13.0405 26.4547 13.6736 26.0641 14.0641C25.6736 14.4547 25.0404 14.4547 24.6499 14.0641L23 12.4142L21.3501 14.0641C20.9596 14.4547 20.3264 14.4547 19.9359 14.0641C19.5454 13.6736 19.5454 13.0405 19.9359 12.6499L21.5858 11L19.9359 9.3501C19.5454 8.95958 19.5454 8.32641 19.9359 7.93589Z" fill="white"/>
  </symbol>
  <view id="size-view" viewBox="0 0 18 18" />
  <view id="mute-view" viewBox="0 18 27 22" />
  <use xlink:href="#size" width="18" height="18" x="0" y="0"></use>
  <use xlink:href="#mute" width="27" height="22" x="0" y="18"></use>
</svg>
